# xmcd
#
# Track frame offsets:
#	150
#	12072
#	23892
#	37008
#	51751
#	68570
#	82786
#	89162
#	101256
#	122178
#	136926
#	150194
#	161604
#	179389
#	193262
#	207455
#	222445
#	235260
#
# Disc length: 3294 seconds
#
# Revision: 1
# Processed by: cddbd v1.5.2PL0 Copyright (c) Steve Scherf et al.
# Submitted via: audiograbber 1.83.01
#
DISCID=ef0cdc12
DTITLE=Frank Sinatra - -
DYEAR=2005
DGENRE=
TTITLE0=Something stupid
TTITLE1=Strangers in the Night
TTITLE2=I get a kick out of you
TTITLE3=The Lady is a Tramp
TTITLE4=I've got you under my skin
TTITLE5=That's life
TTITLE6=Hair of gold, Eyes of blue
TTITLE7=Ol' McDonald
TTITLE8=My Way
TTITLE9=The girl of Ipanema
TTITLE10=Summerwind
TTITLE11=Whats now my Love
TTITLE12=Yesterday
TTITLE13=Three coins in the Fountaine
TTITLE14=My kind of Town
TTITLE15=Come fly with me
TTITLE16=South of the Border
TTITLE17=Love and Marriage
EXTD=
EXTT0=
EXTT1=
EXTT2=
EXTT3=
EXTT4=
EXTT5=
EXTT6=
EXTT7=
EXTT8=
EXTT9=
EXTT10=
EXTT11=
EXTT12=
EXTT13=
EXTT14=
EXTT15=
EXTT16=
EXTT17=
PLAYORDER=
